<?xml version="1.0" standalone="no"?>
<!DOCTYPE svg PUBLIC "-//W3C//DTD SVG 20010904//EN"
 "http://www.w3.org/TR/2001/REC-SVG-20010904/DTD/svg10.dtd">
<svg version="1.0" xmlns="http://www.w3.org/2000/svg"
 width="700.000000pt" height="700.000000pt" viewBox="0 0 700.000000 700.000000"
 preserveAspectRatio="xMidYMid meet">
<metadata>
Created by potrace 1.14, written by Peter Selinger 2001-2017
</metadata>
<g transform="translate(0.000000,700.000000) scale(0.100000,-0.100000)"
fill="#000000" stroke="none">
<path d="M965 6993 c-493 -61 -886 -448 -954 -937 -15 -108 -15 -5004 0 -5112
62 -446 378 -794 833 -917 l81 -22 2520 -3 c1762 -2 2545 0 2603 8 456 59 824
398 929 855 17 77 18 190 18 2635 0 2445 -1 2558 -18 2635 -105 455 -467 791
-921 854 -54 8 -843 11 -2569 10 -1371 -1 -2505 -4 -2522 -6z m2805 -688 c436
-83 791 -366 989 -787 l50 -105 46 -6 c109 -15 230 -111 283 -224 24 -51 27
-70 27 -158 0 -92 -3 -105 -33 -167 -56 -115 -174 -203 -288 -215 l-52 -6 -32
-74 c-84 -192 -241 -363 -405 -444 -36 -17 -64 -34 -62 -36 5 -4 133 42 209
76 l47 20 10 -37 c6 -20 13 -50 17 -67 15 -61 73 -186 117 -248 l44 -64 -150
-69 c-120 -54 -162 -79 -208 -122 -62 -57 -115 -147 -125 -213 -6 -35 -9 -37
-47 -41 -37 -3 -45 0 -71 30 -95 109 -296 122 -420 27 -25 -19 -48 -30 -51
-25 -12 19 -92 22 -128 5 -34 -16 -35 -15 -73 10 -33 23 -47 26 -94 23 -31 -2
-67 -12 -83 -22 -43 -29 -89 -29 -127 -1 -104 77 -289 70 -364 -14 -19 -21
-19 -21 -59 62 -49 100 -144 200 -227 239 -30 14 -97 45 -147 68 l-93 43 35
47 c49 67 112 203 134 290 10 41 22 74 27 73 5 -1 16 -4 25 -8 8 -3 -11 22
-43 55 -71 75 -158 206 -218 327 -41 85 -47 92 -80 98 -104 20 -214 109 -264
215 -28 59 -31 74 -31 165 0 88 3 107 27 158 49 104 127 176 230 211 61 21 61
22 90 88 123 290 363 556 626 692 153 78 274 117 447 142 116 17 381 11 495
-11z m-1771 -1683 c5 -10 18 -53 29 -96 11 -43 29 -87 39 -98 23 -26 269 -190
311 -207 28 -12 30 -16 25 -45 -20 -111 -95 -281 -161 -365 l-20 -24 -58 32
c-194 108 -309 242 -329 384 -6 39 -5 46 7 42 12 -5 16 7 20 62 3 42 15 90 31
125 14 31 23 59 19 62 -3 3 -16 6 -30 6 -35 0 -81 -52 -131 -149 -54 -104 -85
-141 -120 -141 -43 0 -68 25 -80 80 -38 176 24 340 128 340 51 0 124 -27 184
-68 l45 -32 11 32 c25 72 60 98 80 60z m3060 -7 c11 -14 23 -39 26 -56 l7 -30
31 21 c18 12 59 35 92 51 104 51 176 35 216 -48 21 -42 24 -62 24 -165 0 -103
-2 -120 -21 -145 -24 -32 -65 -41 -97 -20 -12 8 -48 62 -80 120 -60 111 -102
157 -143 157 -30 0 -31 -18 -2 -73 13 -25 24 -69 27 -112 5 -52 10 -69 20 -67
22 5 7 -91 -24 -155 -48 -96 -177 -213 -312 -281 l-41 -21 -25 33 c-63 82
-133 243 -151 347 -6 35 -5 36 46 64 68 37 246 156 279 187 17 16 31 46 43 93
32 131 46 148 85 100z m-1071 -1247 c37 -9 60 -24 104 -71 56 -57 59 -59 89
-48 36 12 49 7 49 -19 0 -23 28 -53 45 -46 39 15 101 16 119 3 18 -13 19 -19
8 -55 -15 -51 -8 -68 33 -82 18 -6 35 -19 38 -29 3 -13 17 -20 47 -24 39 -5
59 -19 60 -39 0 -5 -504 -8 -1119 -8 -1008 0 -1119 2 -1125 16 -12 32 12 54
59 54 24 0 48 6 52 13 4 6 17 17 28 23 11 6 21 20 23 30 12 75 52 105 105 79
38 -19 61 -19 77 -1 6 8 28 16 48 18 33 3 38 8 65 61 64 125 221 154 341 62
42 -32 48 -33 103 -28 32 3 63 11 68 18 37 45 94 45 144 0 44 -40 72 -44 93
-13 18 27 74 29 110 4 32 -23 44 -20 75 15 62 69 156 94 261 67z m832 -498
c27 -27 28 -108 1 -141 l-19 -24 -1315 0 c-1279 0 -1315 1 -1336 19 -31 28
-30 128 1 150 20 14 163 16 1335 16 1300 0 1313 0 1333 -20z m-1876 -327 c3
-54 11 -204 16 -333 6 -129 24 -527 41 -884 16 -357 27 -652 24 -654 -8 -8
-286 25 -295 35 -4 4 -15 118 -24 253 -14 201 -21 250 -36 270 -91 130 -140
351 -140 635 0 173 16 302 50 400 19 56 20 69 10 183 -5 68 -10 139 -10 158
l0 34 179 0 179 0 6 -97z m718 40 c1 -32 1 -67 1 -78 0 -11 -6 -382 -12 -825
-6 -443 -14 -856 -17 -917 l-6 -113 -149 0 -149 0 0 128 c0 139 -15 1000 -26
1530 l-7 332 182 0 181 0 2 -57z m724 0 c-4 -32 -38 -467 -76 -967 -39 -500
-72 -911 -74 -914 -8 -8 -286 -35 -293 -28 -4 3 8 327 25 719 18 391 37 822
43 957 5 135 12 255 15 268 4 22 6 22 185 22 l181 0 -6 -57z"/>
<path d="M3333 5840 c-491 -52 -893 -296 -1040 -631 -56 -128 -73 -310 -40
-439 76 -297 352 -553 726 -674 148 -48 224 -63 372 -75 565 -45 1132 205
1322 584 83 165 97 381 38 551 -72 203 -268 406 -512 529 -240 122 -590 184
-866 155z m-232 -280 c30 -17 23 -38 -16 -46 -52 -9 -116 37 -67 49 31 8 63 7
83 -3z m1106 -59 c86 -40 127 -160 85 -254 -17 -38 -27 -48 -60 -58 -36 -10
-45 -9 -85 10 -27 13 -56 38 -73 63 -25 36 -29 50 -29 114 0 63 3 76 25 99 45
48 75 54 137 26z m-1253 -47 c10 -27 8 -30 -71 -76 -132 -77 -244 -209 -297
-350 -29 -76 -51 -84 -51 -18 1 52 46 157 99 229 55 75 151 164 213 198 64 36
98 41 107 17z m1327 -453 c37 -38 39 -82 4 -116 -51 -52 -145 -16 -145 55 0
40 47 90 85 90 16 0 38 -12 56 -29z"/>
<path d="M4216 3963 c-89 -48 -298 -101 -481 -123 -147 -18 -438 -16 -580 4
-129 17 -281 54 -353 86 -57 26 -60 25 -32 -5 31 -33 152 -116 215 -148 129
-65 332 -107 515 -107 278 0 518 85 684 242 39 37 69 67 66 67 -3 0 -18 -7
-34 -16z"/>
<path d="M3856 3200 c-41 -13 -75 -48 -86 -90 -12 -44 -3 -99 17 -107 23 -9
45 17 38 47 -14 62 39 109 108 96 40 -7 60 -27 82 -79 22 -52 40 -56 80 -17
28 27 37 31 49 21 8 -7 16 -29 18 -49 2 -29 8 -38 25 -40 42 -6 43 86 0 125
-32 30 -58 35 -91 18 -29 -15 -30 -15 -59 21 -48 57 -109 75 -181 54z"/>
<path d="M3022 3184 c-18 -9 -43 -34 -55 -54 l-22 -38 -24 19 c-27 22 -41 23
-74 8 -30 -14 -47 -48 -47 -94 0 -28 4 -35 20 -35 15 0 20 7 20 26 0 63 39 82
80 39 33 -35 46 -31 68 18 32 70 78 95 141 77 45 -13 60 -36 61 -92 0 -41 3
-48 20 -48 14 0 21 9 26 35 8 46 -13 102 -48 128 -37 28 -122 33 -166 11z"/>
</g>
</svg>
