<svg xmlns="http://www.w3.org/2000/svg" viewBox="0 0 20 16" fill="currentColor" aria-hidden="true"><path d="M.302.061a.671.671 0 0 0-.213.178L0 .357v15.279l.082.107a.964.964 0 0 0 .216.182C.428 16 .503 16 10 16s9.571 0 9.702-.075a.964.964 0 0 0 .216-.182l.082-.107V.357l-.09-.118C19.718-.02 20.59 0 9.994 0 1.263 0 .42.008.302.061Zm2.851 1.547v.488H1.155v-.973h1.998v.485Zm3.131 0v.488H4.327v-.973H6.284v.485Zm3.168 0v.488H7.496v-.973h1.956v.485Zm3.13 0v.488h-1.956v-.973H12.583v.485Zm3.132 0v.488H13.757v-.973H15.714v.485Zm3.13 0v.488H16.93v-.973h1.916v.485ZM8.715 5.504c.295.142 3.455 1.913 3.53 1.978.29.242.29.762 0 1.019-.1.09-3.172 1.821-3.563 2.01-.362.175-.81.068-1.025-.246l-.12-.174V8.02c0-1.996 0-2.078.075-2.217.201-.378.678-.506 1.103-.3Zm-5.56 8.867v.485H1.154v-.973h1.998v.488Zm3.13 0v.485H4.327v-.46c0-.253.011-.474.026-.488.012-.01.451-.025.977-.025h.954v.488Zm3.168 0v.485H7.496v-.973h1.956v.488Zm3.13 0v.485h-1.956v-.973H12.583v.488Zm3.132 0v.485H13.757v-.46c0-.253.011-.474.026-.488.015-.01.455-.025.977-.025h.954v.488Zm3.13 0v.485H16.93v-.973h1.916v.488Z" fill-rule="evenodd"/></svg>