<svg xmlns="http://www.w3.org/2000/svg" viewBox="0 0 22 16" fill="currentColor" aria-hidden="true"><path d="M.36.086A.662.662 0 0 0 .094.34L0 .508v6.426c0 6.032.004 6.434.074 6.573.04.082.13.189.196.238.119.086.192.09 1.6.11l1.477.02-.372.648c-.335.574-.376.668-.372.849.004.36.27.614.638.614.356 0 .442-.094 1.072-1.18l.553-.95h12.227l.545.934c.298.516.585.98.634 1.037.119.127.372.2.565.163.323-.061.589-.446.523-.75-.016-.065-.188-.397-.388-.741l-.364-.623 1.501-.02c1.429-.021 1.502-.025 1.62-.111a.803.803 0 0 0 .197-.238c.07-.14.074-.54.074-6.569 0-6.303 0-6.43-.086-6.59a.553.553 0 0 0-.27-.258L21.456 0h-10.46C.593 0 .536 0 .36.086Zm9.22 3.905c.205.103.311.27.331.513.025.278-.081.48-.331.606-.156.078-.258.094-.585.094h-.401v2.123c0 1.414-.017 2.176-.05 2.291a.693.693 0 0 1-.51.471c-.136.025-.214.009-.373-.07-.369-.188-.356-.085-.356-2.606V5.204h-.377c-.47 0-.663-.049-.802-.217-.29-.344-.188-.832.213-1.012.098-.04.47-.057 1.612-.057 1.326 0 1.494.004 1.629.073Zm2.509-.028c.266.14.302.213.912 1.975.327.947.61 1.705.626 1.688.017-.016.274-.782.573-1.696.299-.918.581-1.713.626-1.77.115-.148.43-.263.614-.226a.637.637 0 0 1 .508.64c0 .094-.348 1.2-.827 2.643-.72 2.172-.843 2.495-.97 2.639-.389.43-1.035.266-1.256-.324-.045-.119-.442-1.254-.88-2.524-.516-1.488-.798-2.369-.798-2.48 0-.418.511-.75.872-.565Z" fill-rule="evenodd"/></svg>