<svg fill="currentColor"  xmlns="http://www.w3.org/2000/svg" viewBox="0 0 24 24" aria-hidden="true"><path d="M3.703 20.094V9.25h3.61v10.844h-3.61ZM7.547 5.906c0 1.032-.781 1.875-2.047 1.875h-.016c-1.218 0-2-.843-2-1.875 0-1.062.813-1.875 2.047-1.875 1.235 0 2 .813 2.016 1.875Zm9.14 14.188v-5.797c0-1.469-.515-2.453-1.812-2.453-1 0-1.594.672-1.86 1.312-.093.235-.109.563-.109.875v6.063h-3.61c.048-9.828 0-10.844 0-10.844h3.61v1.578h-.031C13.344 10.078 14.203 9 16.141 9c2.375 0 4.156 1.547 4.156 4.875v6.219h-3.61ZM24 4.5C24 2.016 21.984 0 19.5 0h-15A4.501 4.501 0 0 0 0 4.5v15C0 21.984 2.016 24 4.5 24h15c2.484 0 4.5-2.016 4.5-4.5v-15Z" fill-rule="evenodd"/></svg>