<svg fill="currentColor" viewBox="0 0 24 24" xmlns="http://www.w3.org/2000/svg" aria-hidden="true">
<path d="M19.5 0h-15A4.501 4.501 0 0 0 0 4.5v15C0 21.984 2.016 24 4.5 24h15c2.484 0 4.5-2.016 4.5-4.5v-15C24 2.016 21.984 0 19.5 0ZM12 21a9 9 0 1 1 9-9 9.02 9.02 0 0 1-9 9Zm7.599-7.772a11.49 11.49 0 0 0-4.794-.318 33.918 33.918 0 0 1 1.476 5.482 7.862 7.862 0 0 0 3.318-5.164Zm-4.6 5.853a32.451 32.451 0 0 0-1.647-5.853h-.048C9 14.754 7.427 17.755 7.279 18.025A7.798 7.798 0 0 0 12 19.672c1.03.01 2.05-.19 3-.591Zm-8.703-1.917c.148-.27 2.286-3.787 6.246-5.067a.756.756 0 0 1 .32-.073c-.198-.442-.395-.885-.64-1.328a27.114 27.114 0 0 1-7.918 1.083v.243a7.701 7.701 0 0 0 1.992 5.14v.002Zm-1.82-6.713a30.632 30.632 0 0 0 7.108-.91 47.325 47.325 0 0 0-2.829-4.427 7.453 7.453 0 0 0-4.279 5.337Zm5.729-5.877a46.975 46.975 0 0 1 2.877 4.475c2.705-1.033 3.892-2.556 4.033-2.753a7.616 7.616 0 0 0-5.066-1.92 4.955 4.955 0 0 0-1.844.198Zm7.745 2.58c-.173.198-1.426 1.869-4.279 3.05.173.37.37.714.516 1.108.048.124.124.27.172.394 1.787-.183 3.59-.1 5.352.243a7.857 7.857 0 0 0-1.761-4.794Z" fill-rule="evenodd"/></svg>