<svg fill="currentColor"  xmlns="http://www.w3.org/2000/svg" viewBox="0 0 24 24" aria-hidden="true"><path fill-rule="evenodd" d="M12 9.024a2.976 2.976 0 1 0 0 5.952 2.976 2.976 0 0 0 0-5.952Zm11.916-2.94a7.836 7.836 0 0 0-.504-2.712A4.8 4.8 0 0 0 20.628.588a7.836 7.836 0 0 0-2.712-.504C16.368 0 15.912 0 12 0 8.088 0 7.632 0 6.084.084a7.836 7.836 0 0 0-2.712.504A4.8 4.8 0 0 0 .588 3.372a7.836 7.836 0 0 0-.504 2.712C0 7.632 0 8.088 0 12c0 3.912 0 4.368.084 5.916.013.93.183 1.851.504 2.724.24.632.612 1.204 1.092 1.68a4.668 4.668 0 0 0 1.692 1.092 7.836 7.836 0 0 0 2.712.504C7.632 24 8.088 24 12 24c3.912 0 4.368 0 5.916-.084a7.836 7.836 0 0 0 2.712-.504 4.668 4.668 0 0 0 1.692-1.092 4.728 4.728 0 0 0 1.092-1.68 7.92 7.92 0 0 0 .504-2.724C24 16.368 24 15.912 24 12c0-3.912 0-4.368-.084-5.916Zm-3.048 9.6a6.876 6.876 0 0 1-.468 2.16 4.632 4.632 0 0 1-2.556 2.556 6.876 6.876 0 0 1-2.172.42H8.328a6.876 6.876 0 0 1-2.172-.42 4.212 4.212 0 0 1-1.572-1.032c-.435-.43-.77-.95-.984-1.524a6.588 6.588 0 0 1-.408-2.172V8.328c.013-.742.15-1.476.408-2.172a4.212 4.212 0 0 1 1.032-1.572A4.308 4.308 0 0 1 6.156 3.6a6.876 6.876 0 0 1 2.172-.42h7.344a6.876 6.876 0 0 1 2.172.42 4.212 4.212 0 0 1 1.572 1.032c.435.43.77.95.984 1.524.256.697.398 1.43.42 2.172V12c0 2.472.084 2.724.048 3.672v.012Zm-1.92-8.928a2.856 2.856 0 0 0-1.692-1.692A4.8 4.8 0 0 0 15.6 4.8H8.4a4.8 4.8 0 0 0-1.656.312 2.856 2.856 0 0 0-1.692 1.632A5.124 5.124 0 0 0 4.8 8.4v7.2c.012.565.117 1.125.312 1.656.29.784.908 1.403 1.692 1.692.512.188 1.05.294 1.596.312h7.2a4.8 4.8 0 0 0 1.656-.312 2.856 2.856 0 0 0 1.692-1.692 4.8 4.8 0 0 0 .312-1.656V8.4c0-.567-.105-1.128-.312-1.656v.012ZM12 16.584A4.572 4.572 0 0 1 7.428 12 4.584 4.584 0 1 1 12 16.584Zm4.8-8.268a1.08 1.08 0 0 1 0-2.148 1.08 1.08 0 0 1 0 2.148Z"/></svg>