<svg xmlns="http://www.w3.org/2000/svg" viewBox="0 0 196 32"><g fill-rule="nonzero" fill="none"><path d="M24.832 31.52h-5.817V19.577H5.817V31.52H0V2.117h5.817v11.866h13.198V2.117h5.817v29.404Zm12.247-4.274c1.123 0 2.287-.386 3.49-1.159l2.487 4.155c-.962.533-1.979.959-3.048 1.279-1.07.32-2.087.479-3.05.479-2.085 0-3.884-.393-5.395-1.179-1.511-.785-2.655-1.89-3.43-3.315-.776-1.425-1.163-3.057-1.163-4.894 0-1.705.447-3.276 1.343-4.714.896-1.439 2.12-2.577 3.671-3.416 1.551-.84 3.25-1.259 5.095-1.259 2.514 0 4.58.733 6.198 2.198 1.618 1.465 2.668 3.555 3.15 6.272l-12.838 4.075c.856.985 2.019 1.478 3.49 1.478Zm-.441-9.668c-1.257 0-2.26.426-3.01 1.278-.748.853-1.122 1.998-1.122 3.436v.36l7.702-2.597c-.562-1.651-1.752-2.477-3.57-2.477ZM52.936 0v31.52H47.32V0h5.616Zm8.195 0v31.52h-5.617V0h5.617Zm1.214 22.572c0-1.785.421-3.383 1.264-4.794.842-1.412 2.032-2.524 3.57-3.336 1.538-.812 3.283-1.219 5.236-1.219 1.952 0 3.67.407 5.155 1.219 1.484.812 2.627 1.924 3.43 3.336.802 1.411 1.203 3.01 1.203 4.794 0 1.784-.401 3.396-1.203 4.834-.803 1.438-1.946 2.563-3.43 3.376-1.485.812-3.23 1.218-5.236 1.218-1.952 0-3.684-.38-5.195-1.139-1.51-.759-2.688-1.844-3.53-3.256-.843-1.411-1.264-3.089-1.264-5.033Zm5.657.04c0 1.385.4 2.537 1.203 3.455.803.92 1.819 1.379 3.05 1.379 1.283 0 2.32-.453 3.108-1.359.79-.905 1.184-2.064 1.184-3.475 0-1.412-.395-2.57-1.184-3.476-.789-.905-1.825-1.358-3.109-1.358-1.23 0-2.246.46-3.049 1.378-.802.919-1.203 2.07-1.203 3.456ZM114.749.919V31.52h-5.817V17.498l-9.628 13.623h-.08l-9.267-12.744v13.144H84.34V.919h.04l14.964 21.133L114.669.92h.08Zm12.206 12.304c1.953 0 3.671.407 5.155 1.219 1.485.812 2.628 1.924 3.43 3.336.803 1.411 1.204 3.01 1.204 4.794 0 1.784-.401 3.396-1.204 4.834-.802 1.438-1.945 2.563-3.43 3.376-1.484.812-3.23 1.218-5.235 1.218-1.952 0-3.684-.38-5.195-1.139-1.511-.759-2.688-1.844-3.53-3.256-.843-1.411-1.264-3.089-1.264-5.033 0-1.785.421-3.383 1.264-4.794.842-1.412 2.032-2.524 3.57-3.336 1.538-.812 3.283-1.219 5.235-1.219Zm14.574.84 4.092 8.309 3.61-8.31h6.258L145.54 31.88h-.16l-10.51-17.818h6.659Zm19.668 0V31.52h-5.617V14.062h5.617Zm-34.402 3.715c-1.23 0-2.247.46-3.05 1.378-.801.919-1.203 2.07-1.203 3.456 0 1.385.402 2.537 1.204 3.455.802.92 1.819 1.379 3.049 1.379 1.284 0 2.32-.453 3.109-1.359.789-.905 1.183-2.064 1.183-3.475 0-1.412-.394-2.57-1.183-3.476-.79-.905-1.825-1.358-3.11-1.358Zm45.726-4.555c2.514 0 4.58.733 6.198 2.198 1.618 1.465 2.668 3.555 3.149 6.272l-12.838 4.075c.856.985 2.02 1.478 3.49 1.478 1.124 0 2.287-.386 3.49-1.159l2.488 4.155c-.963.533-1.979.959-3.049 1.279-1.07.32-2.086.479-3.049.479-2.086 0-3.884-.393-5.395-1.179-1.511-.785-2.655-1.89-3.43-3.315-.776-1.425-1.164-3.057-1.164-4.894 0-1.705.448-3.276 1.344-4.714.896-1.439 2.12-2.577 3.67-3.416 1.552-.84 3.25-1.259 5.096-1.259Zm16.539.04c1.444 0 2.674.147 3.69.44a9.654 9.654 0 0 1 2.93 1.438l-2.127 3.276a7.697 7.697 0 0 0-1.785-1.059c-.656-.28-1.25-.42-1.786-.42-.641 0-1.163.134-1.564.4-.401.267-.602.586-.602.96-.027.558.207.978.702 1.258s1.264.566 2.307.858l.33.107.171.053.357.107.185.053c2.755.906 4.132 2.557 4.132 4.954 0 1.118-.28 2.144-.842 3.076-.562.932-1.411 1.685-2.548 2.257-1.137.573-2.52.86-4.152.86-1.444 0-2.795-.254-4.052-.76-1.257-.506-2.3-1.212-3.129-2.117l2.327-3.076c1.551 1.438 3.009 2.157 4.373 2.157.722 0 1.303-.113 1.745-.34.441-.226.662-.566.662-1.018 0-.533-.254-.94-.763-1.219a8.598 8.598 0 0 0-1.705-.699l-.737-.216c-.236-.067-.411-.115-.526-.144-1.525-.479-2.661-1.191-3.41-2.137-.75-.945-1.124-2.03-1.124-3.256 0-.932.248-1.844.743-2.736.494-.893 1.263-1.625 2.306-2.198 1.043-.572 2.34-.859 3.892-.859Zm-16.98 4.315c-1.258 0-2.26.426-3.01 1.278-.748.853-1.123 1.998-1.123 3.436v.36l7.703-2.597c-.562-1.651-1.752-2.477-3.57-2.477Z" fill="#E0F2FE"/><path d="M158.55 5.034c.775 0 1.47.273 2.085.819.615.546.923 1.218.923 2.017 0 .8-.308 1.465-.923 1.998-.615.532-1.31.799-2.086.799a3.228 3.228 0 0 1-2.146-.8c-.629-.532-.943-1.198-.943-1.997 0-.799.314-1.471.943-2.017.628-.546 1.344-.82 2.146-.82Z" fill="#FBBF24"/></g></svg>